<svg width="96" height="96" viewBox="0 0 96 96" fill="none" xmlns="http://www.w3.org/2000/svg">
<path d="M76 31.7895L76 22.9474C76 21.3263 74.2 20 72 20L24 20C21.8 20 20 21.3263 20 22.9474L20 31.7895C20 33.4105 21.8 34.7368 24 34.7368L72 34.7368C74.2 34.7368 76 33.4105 76 31.7895ZM76 73.0526L76 64.2105C76 62.5895 74.2 61.2632 72 61.2632L24 61.2632C21.8 61.2632 20 62.5895 20 64.2105L20 73.0526C20 74.6737 21.8 76 24 76L72 76C74.2 76 76 74.6737 76 73.0526ZM76 52.4211L76 43.5789C76 41.9579 74.2 40.6316 72 40.6316L24 40.6316C21.8 40.6316 20 41.9579 20 43.5789L20 52.4211C20 54.0421 21.8 55.3684 24 55.3684L72 55.3684C74.2 55.3684 76 54.0421 76 52.4211Z" fill="black"/>
</svg>
