<svg width="437" height="238" viewBox="0 0 437 238" fill="none" xmlns="http://www.w3.org/2000/svg">
<path d="M405.311 77.9728L185.715 77.9728C175.979 77.9728 167.129 83.6247 163.034 92.4572L114.34 197.484C106.658 214.054 118.757 233 137.021 233L356.616 233C366.352 233 375.202 227.348 379.297 218.516L427.992 113.489C435.674 96.9192 423.574 77.9728 405.311 77.9728Z" fill="#F97316" stroke="white" stroke-width="10"/>
<path d="M405.311 77.9728L185.715 77.9728C175.979 77.9728 167.129 83.6247 163.034 92.4572L114.34 197.484C106.658 214.054 118.757 233 137.021 233L356.616 233C366.352 233 375.202 227.348 379.297 218.516L427.992 113.489C435.674 96.9192 423.574 77.9728 405.311 77.9728Z" fill="#F97316" stroke="white" stroke-width="10"/>
<path d="M31.3177 160.486L250.913 160.486C260.649 160.486 269.499 154.835 273.594 146.002L322.289 40.975C329.971 24.4057 317.871 5.45933 299.608 5.45933L80.0122 5.45931C70.2765 5.45931 61.4264 11.1111 57.3313 19.9436L8.63687 124.971C0.954774 141.54 13.0543 160.486 31.3177 160.486Z" fill="#22C55E" stroke="white" stroke-width="10"/>
<path d="M299.608 5.45945L80.0121 5.45941C70.2765 5.45941 61.4264 11.1112 57.3313 19.9437L8.63685 124.971C0.954732 141.54 13.0542 160.487 31.3177 160.487L250.913 160.487C260.649 160.487 269.499 154.835 273.594 146.002L322.289 40.9751C329.971 24.4059 317.871 5.45945 299.608 5.45945Z" fill="#22C55E" stroke="white" stroke-width="10"/>
</svg>
